<svg width="301" height="300" viewBox="0 0 301 300" fill="none" xmlns="http://www.w3.org/2000/svg">
<g filter="url(#filter0_d)">
<path d="M190.5 127V119H254.5V47H182.5V261H40.5V119H166.5V127H48.5V253H174.5V39H262.5V127H190.5Z" fill="url(#paint0_linear)"/>
<path d="M174.75 253V39.25H262.25V126.75H190.75V119.25H254.5H254.75V119V47V46.75H254.5H182.5H182.25V47V260.75H40.75V119.25H166.25V126.75H48.5H48.25V127V253V253.25H48.5H174.5H174.75V253Z" stroke="url(#paint1_linear)" stroke-width="0.5"/>
</g>
<g filter="url(#filter1_d)">
<rect x="190.5" y="55" width="56" height="56" fill="url(#paint2_linear)"/>
<rect x="190.75" y="55.25" width="55.5" height="55.5" stroke="url(#paint3_linear)" stroke-width="0.5"/>
</g>
<g filter="url(#filter2_d)">
<rect x="56.5" y="135" width="110" height="110" fill="url(#paint4_linear)"/>
<rect x="56.75" y="135.25" width="109.5" height="109.5" stroke="url(#paint5_linear)" stroke-width="0.5"/>
</g>
<defs>
<filter id="filter0_d" x="38.5" y="39" width="224" height="224" filterUnits="userSpaceOnUse" color-interpolation-filters="sRGB">
<feFlood flood-opacity="0" result="BackgroundImageFix"/>
<feColorMatrix in="SourceAlpha" type="matrix" values="0 0 0 0 0 0 0 0 0 0 0 0 0 0 0 0 0 0 127 0"/>
<feOffset dx="-1" dy="1"/>
<feGaussianBlur stdDeviation="0.5"/>
<feColorMatrix type="matrix" values="0 0 0 0 0 0 0 0 0 0 0 0 0 0 0 0 0 0 0.25 0"/>
<feBlend mode="normal" in2="BackgroundImageFix" result="effect1_dropShadow"/>
<feBlend mode="normal" in="SourceGraphic" in2="effect1_dropShadow" result="shape"/>
</filter>
<filter id="filter1_d" x="188.5" y="55" width="58" height="58" filterUnits="userSpaceOnUse" color-interpolation-filters="sRGB">
<feFlood flood-opacity="0" result="BackgroundImageFix"/>
<feColorMatrix in="SourceAlpha" type="matrix" values="0 0 0 0 0 0 0 0 0 0 0 0 0 0 0 0 0 0 127 0"/>
<feOffset dx="-1" dy="1"/>
<feGaussianBlur stdDeviation="0.5"/>
<feColorMatrix type="matrix" values="0 0 0 0 0 0 0 0 0 0 0 0 0 0 0 0 0 0 0.25 0"/>
<feBlend mode="normal" in2="BackgroundImageFix" result="effect1_dropShadow"/>
<feBlend mode="normal" in="SourceGraphic" in2="effect1_dropShadow" result="shape"/>
</filter>
<filter id="filter2_d" x="54.5" y="135" width="112" height="112" filterUnits="userSpaceOnUse" color-interpolation-filters="sRGB">
<feFlood flood-opacity="0" result="BackgroundImageFix"/>
<feColorMatrix in="SourceAlpha" type="matrix" values="0 0 0 0 0 0 0 0 0 0 0 0 0 0 0 0 0 0 127 0"/>
<feOffset dx="-1" dy="1"/>
<feGaussianBlur stdDeviation="0.5"/>
<feColorMatrix type="matrix" values="0 0 0 0 0 0 0 0 0 0 0 0 0 0 0 0 0 0 0.25 0"/>
<feBlend mode="normal" in2="BackgroundImageFix" result="effect1_dropShadow"/>
<feBlend mode="normal" in="SourceGraphic" in2="effect1_dropShadow" result="shape"/>
</filter>
<linearGradient id="paint0_linear" x1="262.5" y1="39" x2="40.5" y2="261" gradientUnits="userSpaceOnUse">
<stop stop-color="#4D4D4D"/>
<stop offset="0.433825" stop-color="#222222"/>
</linearGradient>
<linearGradient id="paint1_linear" x1="262.5" y1="39" x2="40.5" y2="261" gradientUnits="userSpaceOnUse">
<stop stop-color="#767676"/>
<stop offset="1"/>
</linearGradient>
<linearGradient id="paint2_linear" x1="246.5" y1="55" x2="190.5" y2="111" gradientUnits="userSpaceOnUse">
<stop stop-color="#006FFF"/>
<stop offset="1" stop-color="#004CAE"/>
</linearGradient>
<linearGradient id="paint3_linear" x1="246.5" y1="55" x2="190.5" y2="111" gradientUnits="userSpaceOnUse">
<stop stop-color="#69AAFF"/>
<stop offset="1" stop-color="#003376"/>
</linearGradient>
<linearGradient id="paint4_linear" x1="166.5" y1="135" x2="56.5" y2="245" gradientUnits="userSpaceOnUse">
<stop stop-color="#FF6400"/>
<stop offset="1" stop-color="#CB4F00"/>
</linearGradient>
<linearGradient id="paint5_linear" x1="166.5" y1="135" x2="56.5" y2="245" gradientUnits="userSpaceOnUse">
<stop stop-color="#FFA367"/>
<stop offset="1" stop-color="#963B00"/>
</linearGradient>
</defs>
</svg>
